<svg fill="none" viewBox="0 0 850 285" width="100%" height="100%" xmlns="http://www.w3.org/2000/svg">
  <defs>
    <!-- Clip path to round the planet canvas corner -->
    <clipPath id="gif-radius">
      <rect x="35" y="80" width="145" height="145" rx="10" />
    </clipPath>
  </defs>

  <style>
    /* Terminal Styles */
    .bg { fill: #0d1117; stroke: #30363d; stroke-width: 1px; rx: 10px; }
    .text-prompt { font: bold 13px 'Fira Code', Consolas, Monaco, monospace; fill: #3fb950; }
    .text-path { font: 13px 'Fira Code', Consolas, Monaco, monospace; fill: #8b949e; }
    .text-cmd { font: bold 13px 'Fira Code', Consolas, Monaco, monospace; fill: #c9d1d9; }
    
    /* Card Info Styles */
    .card-border { font: 13px 'Fira Code', Consolas, Monaco, monospace; fill: #58a6ff; }
    .text-label { font: bold 12px 'Fira Code', Consolas, Monaco, monospace; fill: #f0883e; }
    .text-value { font: 12px 'Fira Code', Consolas, Monaco, monospace; fill: #c9d1d9; }
    .text-status { font: bold 12px 'Fira Code', Consolas, Monaco, monospace; fill: #3fb950; }
    .text-link { font: bold 12px 'Fira Code', Consolas, Monaco, monospace; fill: #58a6ff; }

    /* Blinking Cursor Animation */
    .cursor {
      fill: #58a6ff;
      animation: blink 1s step-end infinite;
    }
    @keyframes blink {
      0%, 100% { opacity: 1; }
      50% { opacity: 0; }
    }

    /* Pixel Planet SVG Animations */
    .space-bg { fill: #050814; }
    .stars { fill: #ffffff; opacity: 0.6; animation: pulse 2s ease-in-out infinite alternate; }
    .planet-body { fill: #22c55e; }
    .planet-shadow { fill: #15803d; }
    .ring-back { stroke: #a855f7; stroke-width: 6; opacity: 0.6; }
    .ring-front { stroke: #c084fc; stroke-width: 6; }
    
    .orbiting-moon {
      animation: orbit 4s linear infinite;
      transform-origin: 107px 152.5px;
    }

    @keyframes pulse {
      0% { opacity: 0.3; }
      100% { opacity: 0.9; }
    }

    @keyframes orbit {
      0% { transform: rotate(0deg) translate(50px) rotate(0deg); }
      100% { transform: rotate(360deg) translate(50px) rotate(-360deg); }
    }
  </style>

  <!-- Terminal Background Window -->
  <rect width="848" height="283" x="1" y="1" class="bg" />

  <!-- Window Header Buttons -->
  <circle cx="25" cy="22" r="6" fill="#ff5f56" />
  <circle cx="45" cy="22" r="6" fill="#ffbd2e" />
  <circle cx="65" cy="22" r="6" fill="#27c93f" />

  <!-- Command Input -->
  <g transform="translate(25, 55)">
    <text class="text-prompt" x="0" y="0">ribin-k-roy@github</text>
    <text class="text-path" x="160" y="0">:~ $</text>
    <text class="text-cmd" x="200" y="0">gh user view Ryson-Theo</text>
  </g>

  <!-- Animated Pixel Space Canvas (Inside Terminal Slot) -->
  <g clip-path="url(#gif-radius)">
    <!-- Space Background -->
    <rect x="35" y="80" width="145" height="145" class="space-bg" />
    
    <!-- Twinkling Stars -->
    <rect x="50" y="95" width="2" height="2" class="stars" />
    <rect x="140" y="110" width="3" height="3" class="stars" />
    <rect x="70" y="190" width="2" height="2" class="stars" />
    <rect x="160" y="180" width="3" height="3" class="stars" />
    <rect x="110" y="90" width="2" height="2" class="stars" />

    <!-- Planet Back Ring -->
    <ellipse cx="107" cy="152" rx="45" ry="12" class="ring-back" transform="rotate(-15 107 152)" />

    <!-- Main Planet Body -->
    <circle cx="107" cy="152.5" r="28" class="planet-body" />
    <!-- Pixel Shadow -->
    <path d="M 107 124.5 A 28 28 0 0 1 135 152.5 A 28 28 0 0 1 107 180.5 A 20 20 0 0 0 107 124.5 Z" class="planet-shadow" />

    <!-- Planet Front Ring -->
    <path d="M 63 152 A 45 12 0 0 0 151 152" class="ring-front" fill="none" transform="rotate(-15 107 152)" />

    <!-- Orbiting Moon -->
    <circle cx="107" cy="152.5" r="5" fill="#38bdf8" class="orbiting-moon" />
  </g>

  <!-- Canvas Frame Border -->
  <rect x="35" y="80" width="145" height="145" rx="10" fill="none" stroke="#30363d" stroke-width="1.5" />

  <!-- Contact Card Output (Right Side) -->
  <g transform="translate(200, 0)">
    <text class="card-border" x="0" y="95">┌── PRIMARY USER PROFILE ─────────────────────────────────┐</text>
    
    <text class="text-label" x="12" y="118">│ ACCOUNT  :</text>
    <text class="text-value" x="120" y="118">Ryson-Theo (Main Account)</text>
    <text class="card-border" x="555" y="118">│</text>

    <text class="text-label" x="12" y="140">│ ROLE     :</text>
    <text class="text-value" x="120" y="140">Full-Stack Developer &amp; Systems Learner</text>
    <text class="card-border" x="555" y="140">│</text>

    <text class="text-label" x="12" y="162">│ FOCUS    :</text>
    <text class="text-value" x="120" y="162">MERN Architecture • Cloud • System Design</text>
    <text class="card-border" x="555" y="162">│</text>

    <text class="text-label" x="12" y="184">│ STATUS   :</text>
    <text class="text-status" x="120" y="184">🟢 Active Primary Account</text>
    <text class="card-border" x="555" y="184">│</text>

    <text class="text-label" x="12" y="206">│ LINK     :</text>
    <text class="text-link" x="120" y="206">https://github.com/Ryson-Theo</text>
    <text class="card-border" x="555" y="206">│</text>

    <text class="card-border" x="0" y="225">└─────────────────────────────────────────────────────────┘</text>
  </g>

  <!-- Active Prompt with Blinking Cursor -->
  <g transform="translate(25, 260)">
    <text class="text-prompt" x="0" y="0">ribin-k-roy@github</text>
    <text class="text-path" x="160" y="0">:~ $</text>
    <rect x="200" y="-12" width="8" height="15" class="cursor" />
  </g>
</svg>
